<mxfile host="app.diagrams.net" modified="2021-07-25T12:11:53.160Z" agent="5.0 (Windows NT 10.0; Win64; x64) AppleWebKit/537.36 (KHTML, like Gecko) Chrome/92.0.4515.107 Safari/537.36 Edg/92.0.902.55" etag="Im9LFVF_5MemFobSFuUs" version="14.9.0" type="github">
  <diagram id="07fea595-8f29-1299-0266-81d95cde20df" name="Page-1">
    <mxGraphModel dx="-754" dy="-33" grid="1" gridSize="10" guides="1" tooltips="1" connect="1" arrows="1" fold="1" page="1" pageScale="1" pageWidth="1169" pageHeight="827" background="none" math="0" shadow="0">
      <root>
        <mxCell id="0" />
        <mxCell id="1" parent="0" />
        <mxCell id="723" value="&lt;p&gt;&lt;/p&gt;&lt;br&gt;&lt;p&gt;&quot;I thought it was bad and it has to change.&quot;&lt;/p&gt;&lt;p&gt;Criticism&lt;br&gt;&lt;/p&gt;" style="whiteSpace=wrap;fillColor=#12AAB5;gradientColor=none;gradientDirection=east;strokeColor=none;html=1;fontColor=#23445d;" parent="1" vertex="1">
          <mxGeometry x="2480" y="1464.5" width="200" height="130" as="geometry" />
        </mxCell>
        <mxCell id="724" value="&lt;p&gt;&lt;/p&gt;&lt;br&gt;&lt;p&gt;&quot;I thought it was bad, but I can live with it.&quot;&lt;/p&gt;&lt;p&gt;Suggestion&lt;/p&gt;" style="whiteSpace=wrap;fillColor=#12AAB5;gradientColor=none;gradientDirection=east;strokeColor=none;html=1;fontColor=#23445d;" parent="1" vertex="1">
          <mxGeometry x="2720" y="1480" width="200" height="114.5" as="geometry" />
        </mxCell>
        <mxCell id="727" value="" style="edgeStyle=none;html=1;fontColor=#000000;strokeWidth=3;strokeColor=#000000;" parent="1" edge="1">
          <mxGeometry width="100" height="100" relative="1" as="geometry">
            <mxPoint x="2437.5" y="1594.5" as="sourcePoint" />
            <mxPoint x="2437.5" y="1114.5" as="targetPoint" />
          </mxGeometry>
        </mxCell>
        <mxCell id="728" value="&lt;div&gt;&amp;nbsp;&lt;/div&gt;&lt;div&gt;&lt;br&gt;&lt;/div&gt;&lt;div&gt;&quot;I thought it was good, and can further improve.&quot;&lt;br&gt;&lt;br&gt;&lt;/div&gt;&lt;div&gt;Advice&lt;br&gt;&lt;/div&gt;" style="whiteSpace=wrap;fillColor=#F08705;gradientColor=none;gradientDirection=east;strokeColor=none;html=1;fontColor=#23445d;" parent="1" vertex="1">
          <mxGeometry x="2480" y="1360" width="200" height="120" as="geometry" />
        </mxCell>
        <mxCell id="730" value="&lt;p&gt;&lt;/p&gt;&lt;br&gt;&lt;p&gt;&quot;I thought it was good, and it can continue to be.&quot;&lt;/p&gt;&lt;p&gt;Compliment&lt;br&gt;&lt;/p&gt;" style="whiteSpace=wrap;fillColor=#F08705;gradientColor=none;gradientDirection=east;strokeColor=none;html=1;fontColor=#23445d;" parent="1" vertex="1">
          <mxGeometry x="2720" y="1360" width="200" height="120" as="geometry" />
        </mxCell>
        <mxCell id="734" value="" style="edgeStyle=none;html=1;fontColor=#000000;strokeWidth=3;strokeColor=#000000;" parent="1" edge="1">
          <mxGeometry width="100" height="100" relative="1" as="geometry">
            <mxPoint x="2437.5" y="1594.5" as="sourcePoint" />
            <mxPoint x="3357.5" y="1594.5" as="targetPoint" />
          </mxGeometry>
        </mxCell>
        <mxCell id="736" value="To Change" style="text;spacingTop=-5;align=center;verticalAlign=middle;fontStyle=0;html=1;fontSize=18;points=[];strokeColor=none;" parent="1" vertex="1">
          <mxGeometry x="2497.5" y="1596.5" width="120" height="30" as="geometry" />
        </mxCell>
        <mxCell id="737" value="To Stay" style="text;spacingTop=-5;align=center;verticalAlign=middle;fontStyle=0;html=1;fontSize=18;points=[];strokeColor=none;" parent="1" vertex="1">
          <mxGeometry x="2697.5" y="1596.5" width="120" height="30" as="geometry" />
        </mxCell>
        <mxCell id="739" value="" style="whiteSpace=wrap;fillColor=#12AAB5;gradientColor=none;gradientDirection=east;strokeColor=none;html=1;fontColor=#23445d;" parent="1" vertex="1">
          <mxGeometry x="3257.5" y="994.5" width="35.000000000000114" height="30.000000000000227" as="geometry" />
        </mxCell>
        <mxCell id="740" value="" style="whiteSpace=wrap;fillColor=#F08705;gradientColor=none;gradientDirection=east;strokeColor=none;html=1;fontColor=#23445d;" parent="1" vertex="1">
          <mxGeometry x="3257.4999999999995" y="954.4999999999999" width="35.000000000000114" height="30.000000000000227" as="geometry" />
        </mxCell>
        <mxCell id="741" value="" style="whiteSpace=wrap;fillColor=#E85642;gradientColor=none;gradientDirection=east;strokeColor=none;html=1;fontColor=#23445d;" parent="1" vertex="1">
          <mxGeometry x="3257.5" y="914.5" width="35.000000000000114" height="30.000000000000114" as="geometry" />
        </mxCell>
        <mxCell id="742" value="Type 1" style="text;spacingTop=-5;html=1;points=[];fontSize=15;" parent="1" vertex="1">
          <mxGeometry x="3297.5" y="919.5000000000001" width="80" height="20" as="geometry" />
        </mxCell>
        <mxCell id="743" value="Type 2" style="text;spacingTop=-5;html=1;points=[];fontSize=15;" parent="1" vertex="1">
          <mxGeometry x="3297.5" y="959.5000000000001" width="80" height="20" as="geometry" />
        </mxCell>
        <mxCell id="744" value="Type 3" style="text;spacingTop=-5;html=1;points=[];fontSize=15;" parent="1" vertex="1">
          <mxGeometry x="3297.5" y="999.5000000000001" width="80" height="20" as="geometry" />
        </mxCell>
        <mxCell id="746" value="Negative Feedback" style="text;spacingTop=-5;align=center;verticalAlign=middle;fontStyle=0;html=1;fontSize=18;points=[]" parent="1" vertex="1">
          <mxGeometry x="2405.5" y="1464.5000000000002" width="30" height="129.99999999999977" as="geometry" />
        </mxCell>
        <mxCell id="747" value="Positive Feedback" style="text;spacingTop=-5;align=center;verticalAlign=middle;fontStyle=0;html=1;fontSize=18;points=[]" parent="1" vertex="1">
          <mxGeometry x="2405.5" y="1334.5" width="30" height="129.99999999999977" as="geometry" />
        </mxCell>
        <mxCell id="749" value="&lt;font style=&quot;font-size: 30px&quot;&gt;Feedback Model&lt;/font&gt;" style="text;spacingTop=-5;align=center;verticalAlign=middle;fontSize=30;fontStyle=1;html=1;points=[]" parent="1" vertex="1">
          <mxGeometry x="2437.5" y="854.5" width="810" height="45" as="geometry" />
        </mxCell>
      </root>
    </mxGraphModel>
  </diagram>
</mxfile>
